<?xml version="1.0" encoding="utf-8"?>
<!-- Generator: Adobe Illustrator 19.1.0, SVG Export Plug-In . SVG Version: 6.00 Build 0)  -->
<svg version="1.1" id="Layer_1" xmlns="http://www.w3.org/2000/svg" xmlns:xlink="http://www.w3.org/1999/xlink" x="0px" y="0px"
	 viewBox="-297 389 16 16" style="enable-background:new -297 389 16 16;" xml:space="preserve">
<style type="text/css">
	.st0{fill:#004A79;}
</style>
<path class="st0" d="M-281,404.2l-4.6-4.5c2.2-2.6,2.1-6.4-0.3-8.9c-1.3-1.2-2.9-1.8-4.6-1.8s-3.3,0.6-4.6,1.9
	c-2.5,2.5-2.5,6.7,0,9.2c1.3,1.3,2.9,1.9,4.6,1.9c1.5,0,3-0.5,4.2-1.5l4.6,4.5L-281,404.2z M-294.3,399.3c-1-1-1.6-2.4-1.6-3.8
	s0.6-2.8,1.6-3.8s2.4-1.6,3.8-1.6s2.8,0.6,3.8,1.6s1.6,2.4,1.6,3.8s-0.6,2.8-1.6,3.8s-2.4,1.6-3.8,1.6S-293.3,400.4-294.3,399.3z"/>
</svg>
