<?xml version="1.0" encoding="utf-8"?>
<!-- Generator: Adobe Illustrator 19.1.0, SVG Export Plug-In . SVG Version: 6.00 Build 0)  -->
<svg version="1.1" id="Layer_1" xmlns="http://www.w3.org/2000/svg" xmlns:xlink="http://www.w3.org/1999/xlink" x="0px" y="0px"
	 viewBox="-297 389 16 16" style="enable-background:new -297 389 16 16;" xml:space="preserve">
<style type="text/css">
	.st0{fill:#004A79;}
</style>
<path class="st0" d="M-283,401v-5c0-3-2.2-5.4-5-5.9V390l0,0c0-0.5-0.5-1-1-1s-1,0.5-1,1l0,0v0.1c-2.8,0.5-5,2.9-5,5.9v5h-1v1h4
	c0,1.7,1.3,3,3,3s3-1.3,3-3h4v-1H-283z M-294,396c0-2.8,2.2-5,5-5s5,2.2,5,5v2h-10V396z M-289,404c-1.1,0-2-0.9-2-2h4
	C-287,403.1-287.9,404-289,404z M-294,401v-2h10v2H-294z"/>
<path class="st0" d="M-296,389.9"/>
</svg>
