<svg xmlns="http://www.w3.org/2000/svg" width="34" height="34" viewBox="0 0 32 32"><path d="M18.054 23.463c-.186 1.392-.652 2.684-1.493 3.877a8.68 8.68 0 01-1.961 1.79c-2.613 1.59-5.693 1.193-7.839-.597-.56-.696-.747-1.392-.747-1.691 0-.793.466-1.589 1.119-1.987.094-.099.188-.099.374-.198.747-.298 1.586-.199 2.24.397.094.1.186.1.28.199.84.796 1.959 1.192 2.987 1.293 1.026.098 2.146-.2 3.08-.696.747-.697 1.493-1.492 1.96-2.387zm5.041-5.566c1.026.795 1.865 1.987 2.333 3.28.279.894.466 1.788.466 2.782 0 3.182-1.866 5.865-4.48 6.957-.839.199-1.492 0-1.772-.197-.654-.396-1.027-1.193-1.027-2.087v-.398c.095-.795.653-1.591 1.401-1.889.092 0 .186-.099.279-.099 1.026-.397 1.959-1.193 2.613-2.088a5.997 5.997 0 00.933-3.182c.094-1.19-.187-2.284-.746-3.079zM3.213 11.833c.374 0 .747.099 1.121.299.093.098.186.098.279.198.653.497.934 1.392.84 2.187 0 .1 0 .199-.093.298-.186 1.192 0 2.385.467 3.48.466.993 1.213 1.887 2.146 2.483.934.598 1.96.796 2.894.796a6.403 6.403 0 01-3.827.597c-.84-.1-1.68-.397-2.52-.894-2.614-1.591-3.827-4.672-3.454-7.554.281-.896.748-1.392 1.026-1.492a1.728 1.728 0 011.121-.398zm20.722-2.087c.372 0 .653 0 1.025.101.84.099 1.681.397 2.521.894 2.613 1.59 3.828 4.671 3.453 7.555-.279.894-.746 1.391-1.026 1.49-.654.396-1.493.396-2.24 0-.093-.1-.187-.1-.279-.2-.654-.495-.934-1.391-.84-2.186 0-.1 0-.199.093-.299.187-1.192 0-2.385-.468-3.479-.466-.994-1.213-1.889-2.146-2.485-.933-.596-1.961-.795-2.894-.795.839-.397 1.867-.596 2.801-.596zm-2.894-7.952c1.586 0 3.08.597 4.292 1.59.561.696.748 1.392.748 1.691 0 .794-.468 1.59-1.121 1.987-.093.1-.186.1-.372.199-.748.299-1.587.199-2.241-.397-.094-.1-.187-.1-.28-.199-.838-.795-1.96-1.192-2.986-1.292-1.026-.1-2.146.198-3.08.694-.933.597-1.586 1.392-2.053 2.287.186-1.391.652-2.684 1.493-3.876a8.581 8.581 0 011.96-1.788c1.212-.598 2.426-.896 3.64-.896zM11.24 1c.467 0 .84.1 1.026.298.653.397 1.027 1.192 1.027 2.086v.398c-.093.795-.653 1.591-1.4 1.888-.094 0-.187.1-.281.1a5.377 5.377 0 00-2.52 2.088 6.016 6.016 0 00-.933 3.18c0 1.095.279 2.188.84 3.082-1.027-.796-1.868-1.987-2.333-3.28-.466-.895-.652-1.789-.652-2.783 0-3.181 1.867-5.865 4.479-6.958C10.773 1 10.96 1 11.24 1z" fill="#ebf8f7"><animateTransform attributeName="transform" attributeType="XML" type="rotate" from="0, 16, 16" to="360, 16, 16" dur="1.5s" repeatCount="indefinite"/></path></svg>